<?xml version="1.0" encoding="utf-8"?>
<!-- Generator: Adobe Illustrator 19.0.0, SVG Export Plug-In . SVG Version: 6.00 Build 0)  -->
<svg version="1.1" xmlns="http://www.w3.org/2000/svg" xmlns:xlink="http://www.w3.org/1999/xlink" x="0px" y="0px"
	 viewBox="0 0 51.9 51.3" style="enable-background:new 0 0 51.9 51.3;" xml:space="preserve">
<style type="text/css">
	.st0{fill:#FFFFFF;}
	.st1{display:none;}
	.st2{display:inline;stroke:#FFFFFF;stroke-miterlimit:10;}
	.st3{display:inline;fill:#FFFFFF;stroke:#000000;stroke-miterlimit:10;}
	.st4{display:inline;fill:none;}
	.st5{display:inline;}
	.st6{font-family:'OpenSans-Bold';}
	.st7{font-size:14px;}
	.st8{font-size:31px;}
</style>
<g id="Слой_1">
	<g id="XMLID_1_">
		<rect id="XMLID_64_" x="1" y="1" width="50" height="49.7"/>
		<path id="XMLID_65_" class="st0" d="M51.1,51.3H0.9V0.5h50.3V51.3z M1.1,50.3h49.8V1.5H1.1V50.3z"/>
	</g>
	<g id="XMLID_2_">
		<rect id="XMLID_3_" x="3.9" y="4" class="st0" width="44.4" height="43.8"/>
		<path id="XMLID_5_" d="M48.4,48.3H3.7V3.5h44.7V48.3z M4,47.3h44V4.5H4V47.3z"/>
	</g>
	<g id="XMLID_6_">
		<path id="XMLID_17_" d="M21.5,37.7h-4.7V24.8l0-2.1l0.1-2.3c-0.8,0.8-1.3,1.3-1.6,1.5l-2.5,2l-2.3-2.8l7.1-5.7h3.8V37.7z"/>
		<path id="XMLID_25_" d="M39.2,37.7h-4.7V24.8l0-2.1l0.1-2.3c-0.8,0.8-1.3,1.3-1.6,1.5l-2.5,2l-2.3-2.8l7.1-5.7h3.8V37.7z"/>
	</g>
	<g id="XMLID_8_">
		<path id="XMLID_18_" class="st0" d="M-158.4,39.5h-5.4V18.3h-7v-4.5h19.4v4.5h-7V39.5z"/>
		<path id="XMLID_20_" class="st0" d="M-136.6,17.9c-2.1,0-3.6,0.8-4.8,2.3s-1.7,3.7-1.7,6.4c0,5.7,2.2,8.6,6.5,8.6
			c1.8,0,4-0.5,6.6-1.4v4.6c-2.1,0.9-4.5,1.3-7.1,1.3c-3.7,0-6.6-1.1-8.6-3.4s-3-5.5-3-9.8c0-2.7,0.5-5,1.5-7s2.4-3.6,4.2-4.6
			s4-1.6,6.4-1.6c2.5,0,5,0.6,7.5,1.8l-1.8,4.4c-1-0.5-1.9-0.9-2.9-1.2S-135.6,17.9-136.6,17.9z"/>
		<path id="XMLID_22_" class="st0" d="M-118.6,26.1l-8.6-12.3h5.6l8.3,12.4V13.8h5.1v12.4l8.3-12.4h5.6l-8.6,12.3l9.1,13.4h-5.8
			l-8.6-13v13h-5.1v-13l-8.6,13h-5.8L-118.6,26.1z"/>
	</g>
</g>
<g id="Слой_1__x28_копия_x29_" class="st1">
	<rect id="XMLID_16_" x="-182.1" y="1" class="st2" width="232.8" height="49.7"/>
	<rect id="XMLID_15_" x="-83.6" y="4" class="st3" width="131.5" height="43.8"/>
	<rect id="XMLID_14_" x="-76.9" y="12.1" class="st4" width="85.8" height="27.6"/>
	<text id="XMLID_13_" transform="matrix(1 0 0 1 -76.875 22.7314)" class="st5"><tspan x="0" y="0" class="st6 st7">БОЛЬШОЙ</tspan><tspan x="0" y="16.8" class="st6 st7">КАЗАЧИЙ</tspan></text>
	<rect id="XMLID_12_" x="8.6" y="14.1" class="st4" width="35.5" height="23.8"/>
	<text id="XMLID_11_" transform="matrix(1 0 0 1 8.6797 37.6514)" class="st5 st6 st8">11</text>
	<rect id="XMLID_10_" x="-173.5" y="12.1" class="st4" width="81.7" height="27.6"/>
	
		<text id="XMLID_9_" transform="matrix(1 0 0 1 -171.5513 39.4511)" class="st6" style="display:inline;fill:#FFFFFF; font-size:36px;">ТСЖ</text>
</g>
</svg>
