<?xml version="1.0" encoding="utf-8"?>
<!-- Generator: Adobe Illustrator 19.0.0, SVG Export Plug-In . SVG Version: 6.00 Build 0)  -->
<svg version="1.1" id="Слой_1" xmlns="http://www.w3.org/2000/svg" xmlns:xlink="http://www.w3.org/1999/xlink" x="0px" y="0px"
	 viewBox="0 0 1920 200" style="enable-background:new 0 0 1920 200;" xml:space="preserve">
<g id="XMLID_2_">
	<path id="XMLID_7_" d="M331.6,116.5c-0.1,0.2-0.1,0.6-0.1,1C331.6,117.1,331.6,116.8,331.6,116.5z"/>
	<path id="XMLID_10_" d="M1400.7,87.5C1400.7,87.5,1400.7,87.5,1400.7,87.5C1400.7,87.5,1400.7,87.5,1400.7,87.5
		c0.3,0.6,0.5,1.1,0.7,1.5c0.2-0.2,0.5-0.4,0.8-0.5l-0.1-0.9l-0.9,0.4l0-0.2C1401.1,87.8,1400.8,87.7,1400.7,87.5z"/>
	<polygon id="XMLID_20_" points="1375.6,114.2 1375.6,114.2 1375.6,114.2 	"/>
	<path id="XMLID_21_" d="M331.6,117.5c0,0.1,0,0.2,0,0.4C331.6,117.8,331.6,117.6,331.6,117.5z"/>
	<path id="XMLID_22_" d="M1072.8,123C1072.8,123,1072.9,123,1072.8,123l3,0c0,0,0,0,0,0L1072.8,123z"/>
</g>
<g id="XMLID_1_">
	<path id="XMLID_3_" d="M1919.9,125.9l0.1,1.5l0,5.4v-7.4C1919.9,125.6,1919.9,125.9,1919.9,125.9z"/>
	<path id="XMLID_9_" d="M1802,183h2.7l0-8.6l0.3-0.5V172h2.6l0.2-3.8c0,0,0.1-0.6-0.4-0.7c0.1-0.2-0.2-0.3-0.2-0.3l0.1-0.3l-0.5-0.3
		l0-0.2l-0.3-0.2l0.4-0.3l1.2-0.7l-0.3-0.1l0.3-0.2v-6.1l0.4-6.5l0.1-1.4c0,0,0.1-0.4,0.3-0.4c0.2,0-0.4-0.2-0.4-0.2l0.1-0.1
		l-0.2-0.1l0-0.2l-0.2-0.1c0,0,0.1-0.3,0.1-0.3c0,0-0.2-0.1-0.2-0.1l0.1-0.3h0.2c0,0-0.3-0.7-0.3-0.7c0,0,0.2-0.1,0.2-0.1l0.1-0.2
		l-0.1-0.2l0.3-0.5l0-0.3l-0.3-0.1l0-0.4l-0.2-0.1l0.2-0.2c0,0,0-0.9-0.4-1.1c0-0.3-0.1-0.5-0.1-0.5l-0.2-0.1l0-0.5
		c0,0,0.2-0.7-0.3-0.9c0.2-0.3-0.2-0.5-0.2-0.5s0.1-0.3-0.5-0.2c0.2-0.4,0.2-0.4,0.2-0.4h-0.4l-0.1-0.2l0.3-0.3l0.4-0.5h0.4l0.4-1
		h0.2h0.1h0.2c0,0,0.1-0.4,0.1-0.4c0,0-0.3-0.2-0.3-0.2l0-0.4h0.2c0,0-0.1-2.3,0.2-2.4s0.2,0.1,0.2,0.1s0-2.2,0.1-2.3s0.5,0,0.5,0
		l-0.2-0.1l0.4-0.7c0,0,0-4.5,0.3-4.5c0.2,0,0.3,0,0.3,0s0-0.7,0.2-0.7c0.2,0,0.5,0.3,0.5,0.3l0.3-4.6h1l0-0.4l-0.2-0.2l0.2-0.4
		l0.4-0.2l0.1-0.5c0,0-0.3-0.2,0-0.6c0.3-0.4,0-0.4,0-0.4s0.1-0.3,0.2-0.4c0.2-0.1-0.4-0.3-0.3-0.4c0.1-0.1,0.1-0.3,0.3-0.3
		c0-0.9,0.1-3.4,0.1-3.4s-0.4-0.1-0.4-0.3c0-0.2,0.3-0.3,0.3-0.3l0-0.3c0,0-0.2-0.1-0.2-0.2s0.1-0.2,0.2-0.2s0-0.2,0-0.2
		s-0.2,0-0.3-0.1c0-0.1,0.1-0.7,0.1-0.7l-0.2-0.2l0.1-0.4l0.1-0.7c0,0-0.4-0.1-0.4-0.2s-0.2-0.4-0.2-0.4l0-0.4c0,0-0.1-0.3-0.3-0.2
		c-0.1,0,0.1-0.3,0.1-0.3l-0.1-0.1l0.2-0.3c0,0,0.4-7.6,0.6-7.8c0.1-0.2,1.4,0.1,1.4,0.1l0.2-0.6h0.7l0.3-0.7c0,0-0.1-2.9,0.2-3
		s0.5,0,0.5,0s0.1-0.5,0.5-0.6c0.3-0.1,0.7,0,0.7,0s0-0.3,0.3-0.4s0.4-0.3,0.4-0.3l-0.4-0.5c0,0-0.6-0.5-0.6-0.9s0.4-0.5,0.4-0.5
		l0-1.1l-0.4-0.2c0,0,0.1-0.2,0.3-0.2s0.1-0.3,0.1-0.3l0.1-0.7l-0.3-0.2l0-0.3l-0.2-0.1l0.2-0.6c0,0-0.3,0-0.3-0.3
		c0-0.3,0.2-0.3,0.2-0.3l0.1-0.9l-0.2-0.4c0,0-0.1-1.1,0.1-1.4c0-0.5-0.1-1.5,0.1-1.7c0-0.1,0.1-0.1,0.1-0.1c-0.1,0-0.3-0.2-0.5-0.5
		c-0.2-0.4-0.1-0.6-0.1-0.6s-0.2,0-0.2-0.4c-0.3-0.3-0.3-0.1-0.3-0.5s-0.2,0.2-0.3-0.4s1-1,1-1s-1.2-2.2-1.2-4
		c0-1.9-0.1-3.3,2.1-6.4c2.3-2.2,3.4-2.5,3.4-2.5s3.9-2.5,4.8-5.9c0.9-3.5,0.7-3.1,0.7-3.1s-0.7-0.5-0.8-1.3c0-0.8,0.6-1.2,0.7-1.3
		s-0.1-0.3-0.2-0.4c-0.1-0.1-0.2-0.3,0.1-0.5s0.5-0.2,0.5-0.2l0.1-4.8l-0.1-2.5l0.1-0.6l0.3-0.3v-4.9c0,0-0.6-0.4-0.6-0.8
		s0.5-0.7,0.5-0.7s0.6,0.3,0.6,0.6s-0.4,0.8-0.4,0.8l0.1,2.4l0.1,1.8c0,0-0.1,1.3-0.1,1.3c0,0.1-0.1,1.3-0.1,1.3l0,0.4l-0.2,0.5v2.5
		l0.1,2.6l0,0.1c0,0,0.6,0.1,0.8,0.4c0.1,0.3,0,0.4-0.1,0.5c-0.1,0.1-0.3,0-0.3,0.1s0.9,0.4,0.8,1.3s-0.6,1.3-0.8,1.4
		c-0.1,0.1,0,1.6,0,1.6s0.6,3.2,3.1,6c0.9,0.9,2.1,1.9,3,2.1c0.9,0.3,4.3,3.4,4.4,6.5c0.1,3.1-0.1,4.3-1.2,6.1
		c0.9,0.3,1.1,0.9,0.9,1c-0.2,0.2-0.5,1.1-0.5,1.1l-0.3,0.4c0,0,0.2,0.4-0.6,0.8c0,0.6,0.1,1.6,0.1,1.6l-0.2,0.3
		c0,0,0.3,0.5,0.2,2.2c0,1.7-0.1,1.6-0.1,1.6s0,0.1-0.1,0.2c0,0.1-0.1,1-0.1,1l0.2,0.1c0,0,0,0.1-0.1,0.2c-0.1,0.1-0.4,0.3-0.4,0.3
		l-0.2,0.5v0.5l0.4,0.2l0.2,0.4l-0.3,0.4l-0.1,0.3l-0.2,0.3l-0.3,0.3c0,0-0.1,0.1-0.1,0.1c0,0.1,0.1,0.3,0.1,0.3l0.5,0.2
		c0,0,0.4-0.2,0.5-0.1s0.3,0.7,0.4,0.7s0.6,0.1,0.7,0.1s0.6,0.1,0.5,3.1c0.6,0.5,0.2,0.3,0.2,0.3l-0.5,0.6v0.4l1.9-0.1l0.2,0.6
		l0.5-0.1l1.4-1.1v-0.6l1.1-0.7l-0.1-1l0.5-0.4l1.1-0.7l0.2-1.2l0.6-0.1l0.4-0.8l0.6-0.2l0.3-2.1l-0.4-0.3l0.4-0.4
		c0,0-0.8-0.3-0.7-1.3c0.1-1,0.7-1,0.7-1s-0.2-0.3-0.2-0.4s0.4-0.4,0.5-0.4c0-0.3,0.1-0.8,0.1-0.8v-1c0,0,0-1.8,0-1.9s0-2.5,0-2.5
		s-0.4-0.2-0.3-0.4c0.1-0.2,0.3-0.3,0.3-0.4c0-0.1,0-1.8,0-1.8s0-1.5,0-1.5c0-0.1-0.1-0.4,0.2-0.7c0.3-0.2,0.2,0.8,0.2,0.8
		s0.2,1.8,0.2,1.8c0,0.1,0.5,0.5,0.5,0.5v0.4l-0.5,0.3l-0.1,1.3l0,1.6l0.1,0.6l-0.2,0.6l0,1.5l0,1.5c0,0,0.4,0.1,0.4,0.5
		c0,0.3-0.3,0.1-0.2,0.3s0.8,0.1,0.8,0.9s-0.4,1.2-0.6,1.3c-0.2,0.1,0.2,0.3,0.2,0.3s0.1,0.1-0.1,0.3s-0.1,1.2-0.1,1.2l0.5-0.1
		l0.3-0.2l0.5-0.1v-0.3l-0.1-0.2l0.1-0.4v-0.3l0.5-0.2l0.2-0.2l0.4-0.2v-0.4v-0.2v-0.2v-0.1v-0.4l0.4-0.1l0.5-0.9l0.3,0
		c0,0,0.7-1.6,0.7-3.6c-0.4-0.3-0.4-0.5-0.2-0.6s0.4-0.3,0.4-0.3V87c0,0-0.8-0.2-0.8-1c0-0.7,0.3-1.4,0.7-1.5
		c-0.2-0.3-0.3-0.4-0.1-0.5c0.2-0.1,0.2-0.1,0.2-0.1v-3.6v-3.1l-0.3,0l0-0.3c0,0,0.2-0.3,0.2-0.3c0-0.1,0.1-0.4,0.1-0.4l0-0.3l0-1.4
		l-0.2,0c0,0,0-0.3,0-0.4s0.2-0.2,0.2-0.2l0-0.7l0-0.7c0,0,0.2-0.8,0.3-0.2c0.1,0.6,0.1,1.4,0.1,1.4l0.3,0.1l-0.2,0.3l-0.1,0.4
		l0,0.5c0,0,0.6-0.1,0.6,0.3s-0.2,0.7-0.2,0.7l-0.2,0.4l-0.1,1.1l0,2.2c0,0,0.3,0.1,0.2,0.5c-0.1,0.3-0.1,1.3-0.1,1.3s0.3,0,0,0.7
		c0.1,0.9,0,1.8,0,1.8s0.5-0.1,0.4,0.3c-0.1,0.3-0.1,0.5-0.1,0.5s1,0.1,0.9,1.1c-0.1,1-0.9,1.4-0.9,1.4s0.5,0.3,0.4,0.5
		c0,0.2-0.4,0.6-0.4,0.6s0.2,2.2,0.8,3.3c0.6,1.1,1,1.7,1,1.7l0.5,1l0.3,0.1c0,0,0.1-2,0.5-2.5c0-0.8,0.3-2.9,0.3-2.9l1.9,0l0.4-0.9
		l0.5-0.1v-0.2l-1-0.4v-0.3l-0.1-0.1l0.1-0.6l-0.5-0.6l-0.3-0.1l0.8-1.1c0,0,0-3.9,0.5-4.2c0.2,0,0.4,0,0.4,0s0-0.8,0.3-1
		c0.3-0.1,1.2,0.1,1.2,0.1s0.9-1,1.9-0.9c0.2,0,0.3-0.3,0.3-0.3s-0.2-0.4-0.4-0.5s0-0.4,0-0.4s-0.6-0.3-0.6-0.3c0,0,0.4-0.4,0.4-0.4
		l0.3,0l-0.3-0.2l0-0.6v-1.2l0-0.5l0.3-0.5l0.1-1.3l-0.2-0.4l0.1-0.4l0-0.6l-0.2-0.2v-0.3c0,0-0.4-0.1-0.4-0.1s0.1-0.3,0.1-0.3
		l0.1-0.2c0,0-0.2-3.5,0.3-4.4c0.4-0.1,3.3,0,3.3,0s0.8-0.4,1.3-1.4l0.3-0.1l0.8-2.4c0,0,1.7-5.4,1.7-5.3s-0.2-0.2-0.2-0.2l0-0.3
		l-0.3-0.1l0-0.5l-0.5-0.6l0.6-1l0.2-0.1c0,0,0-1.5,0.3-1.8c0.3,0,0.5,0,0.5,0l-0.1-0.5v-0.2l0.7-1.1h0.3v-0.8v-0.7l-0.4-0.1
		l-0.2-0.4l0-0.5l-0.2-0.2l0.1-0.4l-0.1-1.1l0-0.6l-0.2-0.1l0.2-0.4l0-0.4c0,0-0.1-0.2-0.2-0.4c-0.2-0.1-0.1-0.4-0.1-0.4v-0.4
		l-0.9-0.4l0.5-0.9l0.7-0.4c0,0-2.3-1.2-2.7-3c-0.8-1.7-0.7-2.8,0.2-4.4c0.8-1.6,3.5-3.4,3.5-3.4s0.9-1.1,1.2-1.5
		c0.3-0.7,0.8-1.6,0.8-3.7c-0.2-0.6-0.5-0.8-0.4-0.9s0.3-0.3,0.4-0.3c0.1,0-0.5-0.6-0.6-0.7c0-0.2-0.3-0.6,0.2-1.2
		c0.5-0.6,0.7-0.5,0.7-0.5s-0.1-0.1-0.1-0.2c0-0.1,0.5-0.4,0.5-0.4s0.5,0.2,0.5,0.3c0,0.2-0.3,0.3-0.3,0.3s1,0.3,0.9,1.2
		c-0.1,0.9-0.7,1.2-0.7,1.2s0.4,0.2,0.4,0.3c0,0.1-0.3,0.4-0.3,0.4s-0.1,2.6,0.5,3.8c0.6,1.2,1.1,1.9,1.1,1.9s1.1,0.7,1.3,1.2
		c0.5,0.2,1.3,0.7,1.3,1.2c0.5,0.2,1.4,1.2,1.4,2.1c0.6,0.7,0.9,1.4,0.2,2.7c-0.1,0.9-0.6,1.8-0.8,1.9c-0.3,0.1-0.8,1.2-0.8,1.2
		s-0.4,0.3-1,0.3c-0.1,0.2-0.5,0.2-0.4,0.2c0,0,0.2,0.2,0.2,0.2c0,0,1.5,0.4,1.5,0.4l-0.6,0.9l-0.3,0.4l-0.2,0.3l-0.3,0.2l0.1,0.6
		l0.4,0.2v0.3l-0.3,0.1l-0.1,1.6c0,0-0.1,0.2-0.1,0.2s0,0.3,0,0.3l-0.2,0.1l0,0.2c0,0,0.4,0.1-0.1,0.8c-0.1,0.5-0.2,0.5-0.2,0.5
		l-0.1,1.7c0,0,0.5,0.3,0.5,0.3s0.1,0.3,0.1,0.3l0,0.4l0,0.2c0,0,0.4,0.1,0.6,0.5c0.2,0,0.3,0,0.4,0.2c0.1,0.2,0.1,1.5,0.1,1.5
		l0.9,0.4l-0.3,0.3l0,0.2l-0.2,0.1l0,0.6l-0.3,0.2l-0.1,0.2l-0.2,0.1l0,0.3l3,8.6l2-0.3c0,0,0.6,1.3,0.9,1.5
		c0.3,0.3,1.2,0.2,1.2,0.2s0.8,2.3,0.6,3.8c-0.1,1.2-0.3,0.8-0.3,0.7c0,0.2,0,0.6,0,0.6s-0.3,0.6-0.3,0.6c0,0.1-0.3,0.4-0.3,0.4
		l-0.1,1.1c0,0,0,0.6,0,0.7c0,0.1,0,0.6,0,0.6v0.7l0.4,0.8l0.4,0.5l0.2,0.4l-0.5,0.4l0.6,1l0.5,0.9c0,0,1.2-0.4,1.8,0.1
		c0.7,0.5,1.3,1.4,1.3,1.4s0.5,2.6,0.4,2.9c-0.1,0.3,0.9,0.6,0.9,0.6v0.4l-0.7,0.5l-0.2,0.7l-0.4,0.2l-0.4,0.4l0.2,1.2l0.2,0.9
		l1.5,0l0.5,3.1c0,0,0.4,0.4,0.6,1.4c0.1,0.6,0.2,0.8,0.2,0.8c0-0.1,0.4-0.7,0.7-0.8c0.3-0.1-0.3-0.3-0.3-0.3l0.3-0.5v-1.7v-2.3
		v-1.9l-0.4-0.2l-0.1-0.4l0.5-0.9v-1l-0.2-0.3l0.3-0.6l0.1-0.6c0,0,0-0.6,0.1-0.7s0.3,0.7,0.3,0.7c0,0.1,0.4,0.4,0.4,0.4v0.6
		l-0.3,0.5l0.1,0.6l0.4-0.1l0.1,0.7l-0.6,0.8l-0.1,2.6l0.1,1.9l0.1,2l0.5,0.6l-0.3,0.2c0,0,0.7,0.3,0.8,0.9c0.1,0.6-0.3,1.3-0.7,1.5
		s0.3,0.4,0.3,0.4l-0.4,0.4c0,0,0.4,2.6,0.9,2.9c0.6-0.2,1.1-0.3,1.1-0.3v-0.5l0.2,0l0.2-0.4h0.6v-0.5l0.5-0.1l0.1-0.4h0.5l0.2-0.6
		l0.5-0.1l0.2-0.3l0.2-0.2l0.4-0.6l0.4-0.8l1-1.4c0,0,1.1-2.8,0.8-3.7c-0.5-0.2-0.5-0.4-0.5-0.4l0.5-0.4c0,0-0.9-0.4-0.9-1.1
		s0.8-1.4,0.8-1.4l-0.1-0.4l0.4-0.4V81l0.3,1.7l0.1,2.5c0,0,0.6,0.2,0.6,0.5c-0.1,0.2-0.3,0.4-0.3,0.4s0.9,0.1,0.9,1.1
		s-0.8,1.2-0.8,1.2s0.3,0.4,0.5,0.5c0.1,0.2-0.4,0.5-0.4,0.5s-0.2,2.4,0.5,3.5s0.7,1.2,0.7,1.2v0.3l0.6,0.4l0.4,0.5
		c0,0,0.1,0.3,0.2,0.3c0.1,0,0.2,0.4,0.2,0.4s0.1,0,0.2,0.1s0.2,0.3,0.2,0.3s0.5,0.4,0.6,0.4c0.1,0,0.4,0.6,0.4,0.6l0.6,0l0.2,0.4
		l0.4,0l0.2,0.6l0.7,0l0.1,0.8l0.5,0l0.4,0.3l1,0.1v1.1l0.7,0.3l0.1,0.5l-0.2,0.5l-0.1,0.3l1.3,1.3l-0.9,0.9l0.6,0.9
		c0,0-0.3,0.2-0.2,0.2s0.6,0.4,0.6,0.4l-1.2,0.7l0.7,1l-1.2,0.8v1.5l-1.1,0.2l-0.2,0.9l-0.5,0.1c0,0,0.9,0.1,1,0.6
		c0.1,0.4-0.5,0.6-0.5,0.6l-0.2,0.2l-0.3,0.1c0,0,0.3,0.4-0.2,1s-0.1,0.8-0.1,0.8l-0.1,0.6l0.2,0.2l-0.2,0.4c0,0,0.4-0.1,0.4,1.4
		c0,1.5,0.2,1.6,0.2,1.6l-0.2,0.6l-0.1,0.7l0,0.9l0.2,0.4l0,0.5l-0.1,0.7l0.1,0.8l-0.1,0.2l2.7-0.1c0,0,1.1,1.2,1.3,2.2
		c0.6-0.3,0.4,0.1,0.4,0.1l0.3-0.5l0.2-0.3l0.4,0.1c0,0,0.5-0.7,0.5-0.8s0.4-0.1,0.5-0.1s0.3,0,0.4,0.1s0.6,0.5,0.6,0.5l0.2,0.4
		c0,0,0.3,0.2,0.4,0.1c0.1-0.1,0.4-0.3,0.4-0.3l-0.7-0.4c-0.2-0.2,0-0.7,0-0.7l0.2-0.5l0.4-0.2c0,0,0.6,0.2,0.7,0.3
		c0.1,0.1,0.4,0.5,0.4,0.6c0,0.1,0.1,0.8,0.1,0.8l0.4-0.1l0.6-0.4l0.2-0.1V0H0v189.5l402.7-2l1.1-13.2l-1.6-1.4l1.7-2v-3.1v-0.4
		l2-0.6l0-6.4l0.6-0.7l0.2-0.5l-1.6-2.1l0.8-0.4l0-0.3v-0.1l0-0.3l-0.2-0.8l0.2,0V155h0.7l0.2-0.8l0.4-6.3l-0.9-0.9l0.6-0.7
		l-0.1-0.8l-0.6-0.3l-1.2-1.1l0.4-1.8l1.5-0.7v-1.1v0v-0.2l0.1-0.1c0.6-0.7,1.2-1.5,1.3-1.7c0,0,0.1-0.2,1.5-1.9l0.9-1l0.2-0.3v-6.5
		l-0.7-1.1l0.5-0.3c0,0,1.3-0.8,1.3-2.7c0-2.5,1.4-3.8,1.5-3.9l0.2-0.2c0,0,0,0,0,0c0.2-0.8,0.1-2.7,0-3.4l-0.8-2.2l0.7,0.1
		c0.1-0.1,0.2-0.3,0.2-0.8c0.2-1,0.8-25.9,1-35.4l0.2-13.1l-0.8-1.3l0.5-0.2c0,0,0.5-0.3,0.6-1.1c0.1-0.8,0-1.1,0-1.1l0-0.1l0,0
		l-0.3-1.2c-1.8-1.7-1.7-1.9-1.6-2.1c0-0.1,0.2-0.5,1.1-0.6l0.2,0l0.2,0.1V58l-0.8-0.6l0.5-1.7L415,56v-0.6V55h1v1.6l1,0.1V58h0.2
		l0.1,1.2c0.6,0.3,0.6,0.5,0.7,0.6L418,60l-0.1,0.3c0,0.1-0.2,1.4-0.3,2.4l0,0.2l-0.1,0.1c-0.1,0-0.1,0.1-0.2,0.2c0,0.2,0,0.3,0,0.4
		c0.3,0.5,0.6,1,0.6,1c0.3,0.3,0.2,0.7-0.3,1.4l1.4,48.6c0.1,0.2,0.3,0.4,0.4,0.4c0.2,0,0.4,0.2,0.4,0.4c0.1,0.3-0.1,0.6-0.9,1.1
		l-0.2,0.1c-0.2,0.4,0,2.1,0.4,3.8c0,0,0.2,0.8,0.7,0.9c0.8,0.2,0.9,1.4,1,3.2c0,0.5,0.1,1.3,0.2,1.5c0.5,0.4,0.7,0.9,0.8,1l0.3,0.7
		l-0.4,1.2l-0.6,0.2l0.1,5.7c0.8,0.6,3.2,2.5,3,4.8c-0.1,1.4,0.5,2.6,1,3.2l0.5-0.9l1.2,0.1l0.1,0.2c0.1,0.2,0.8,1.1,0.6,1.8
		c-0.2,0.7-1,1.5-1.8,1.7c0.1,0.2,0.2,0.5,0.4,0.8l0.1,0.2c0,0.2,0.1,1-0.4,1.4c-0.2,0.8,0,4.9,0.1,5.4c0,0,0.2,0.2,0.4,0.3l0.3,0.2
		l-0.1,0.3c-0.1,0.3-0.2,0.9-0.6,1.2c0,0.1,0,0.4,0.1,0.7l1,0.5v1.7l-0.3,0.1c-0.4,0.2-0.7,0.4-0.9,0.6c0.1,0.2,0.4,0.6,0.6,0.9
		l0.1,0.1l0,0.2c0,0.5,0,1.2-0.4,1.6c-0.1,0.8-0.1,4.2,0,7.4c0.1,0.2,0.3,0.4,0.4,0.8c0.1,0.4,0,0.7-0.1,1c0,0.1-0.1,0.3-0.1,0.4
		c0.1,0.1,0.5,0.4,0.9,0.6l0.4,0.2l-0.1,0.4c0,0.1-0.2,0.9-1,1.3c-0.1,0.1-0.3,0.4-0.4,0.8l25.9-0.2v-10.3c-0.1-0.2-0.1-0.6,0.1-1.1
		c0.1-0.3,0.3-0.5,0.5-0.6c0.2-0.1,0.5-0.1,0.8-0.1l0.3-2.1c-0.2-0.2-0.3-0.5-0.3-1c0.3-2.1,0.4-2.2,0.8-2.3l0.3-0.1l0.2,0.3
		c0,0,0,0,0.1,0.1c0.1,0.1,0.2,0.2,0.3,0.4c0.2-0.3,0.5-0.4,0.9-0.4c0.1,0,0.1,0,0.2,0c0-0.4,0.2-0.9,1.1-1.5
		c0.5-0.3,0.6-0.4,0.6-0.5v0c0-2,0.1-3,0.1-3.5l0,0l0,0c0,0,0-0.1,0-0.1l0,0c0-0.1,0-0.5,0-0.7c0-0.1,0-0.2,0.1-0.4
		c-0.2-0.2-0.4-0.7-0.4-1.3c0.1-1.5,1-1.9,1.2-2c0.1-0.1,0.2-0.2,0.5-0.5c0.6-0.6,0.5-0.9,0.5-0.9l0-0.1l0-0.1c0-0.1,0-0.1-0.1-0.1
		c-0.4-0.3-0.6-0.8-0.3-1.3c0.2-0.4,0.4-0.6,0.6-0.7c0,0,0-0.1,0-0.2c0-0.2,0.1-0.4,0.1-0.6c0,0,0,0,0,0l-0.1-0.1
		c-0.1-0.2-0.1-0.2-0.2-0.2c-0.1,0-0.3,0-0.5-0.2c-0.1-0.1-0.1-0.3-0.1-0.6c0.1-0.3,0.3-0.5,0.5-0.6c0.2-0.2,0.4-0.4,0.5-0.9
		c0-0.3,0-0.8,0.5-0.8c0.5,0,0.5,0.4,0.6,0.8c0,0.2,0.1,0.8,0.2,0.9c0.1,0.1,0.1,0.2,0.2,0.2c0.2,0.2,0.2,0.4,0.2,0.7
		c0,0.2-0.2,0.4-0.4,0.6c-0.1,0.1-0.2,0.1-0.2,0.1c0,0.1,0,0.2,0,0.3c0.1,0.2,0.2,0.5,0.2,0.7c0.4,0.3,0.5,0.5,0.5,0.5l0.1,0.2
		l-0.1,0.3c0,0.1,0,0.2-0.1,0.4c-0.2,0.5-0.3,1.1-0.1,1.5c0.2,0.5,0.4,0.8,0.6,0.8c0.8,0.3,1.3,0.9,1.3,1.7c0,0.5,0.1,1.1-0.4,1.6
		c0.2,0.3,0.2,0.7,0.1,1c-0.1,0.5-0.1,1.6,0,3.2l0,0.2c0,0.1,0.1,0.6,0.3,0.8c0.1,0.1,0.3,0.2,0.5,0.4c0.7,0.5,1.4,1,1.9,1.5l0.1-1
		l0.1-0.1c0.1-0.1,0.3-0.3,0.6-0.3l0.3,0l0.2,0.3c0,0.1,0.1,0.2,0.4,2.1l0.3,0.5l0,0.2c0,0-0.1,0.7-0.2,1.2
		c-0.1,0.6-0.1,1.5,0.1,1.8c0.1,0.1,0.2,0.2,0.3,0.3c0.2,0.2,0.5,0.4,0.5,0.9c0,0.7-0.2,0.9-0.5,1.1c-0.1,0.3-0.2,1.4-0.2,2.3l0,0.2
		l-0.2,0.1c-0.1,0.1-0.2,0.2-0.2,0.2c0,1-0.1,6.4-0.1,8.2l1,0v-1.4v0v0l0.2-1.1l0.7-0.6l1.4-0.1c0.5-0.6,1.9-2.3,3.2-2.4
		c1.3-0.1,1.4-0.1,1.4-0.1c1.1,0.1,3.2,0.7,3.5,2.5c1.4,0.1,1.4,0.1,1.5,0.4l0.1,0.3l-0.1,0.1c0,0.2-0.1,0.5-0.2,1l-0.1,0.3
		l-0.9,0.1l-0.1,0.2l0,0.1l0.5-0.1l0.3,1.9l-0.6,0.8l0.1,0.4l1.3-0.3l0.1,0.5c0.4,2.2,0.6,3,0.6,3.3c0.2,0.2,0.9,0.7,1.4,1.2
		l0.1,0.2l2,3.7l20.5,1.3l-1.5-8.1l1.6-0.1l0.8-0.6l1.2,0.5l5.5-0.1c0.3-1.8,1.8-8.5,9.5-10.3v-0.9v-0.3l0.8-0.5
		c-0.3-1-0.2-1.2-0.1-1.3c0,0,0.1-0.3,0.1-0.6l0.1-0.6l0.1,0v-2.6l-0.3-0.5l1.3-0.9v-0.9v0c0-0.1,0.3-2.2,2.1-3.4
		c0-0.8,0.2-1.4,0.4-1.8l0.1-0.1c0.1-0.1,0.1-0.2,0.1-0.3l0-0.1l-0.2-0.9l0.1,0c-0.3-0.3-0.6-0.8-0.6-1.6c0-1.2,0.8-1.6,1.3-1.9
		c0.1-0.1,0.2-0.1,0.3-0.2c0.1-1.5-0.6-1.7-0.6-1.8l-0.1-0.1c-0.3-0.2-0.5-0.5-0.5-0.9c0.1-0.3,0.3-0.5,0.5-0.6c0-2.2,0-2.7,0-2.8
		v-4.5l1,4.4c0.3,1.2,0.6,2.6,0.8,3c0.2,0.1,0.4,0.4,0.8,0.9l0.1,0.2l-0.1,0.2c0,0-0.2,0.7-0.2,1.2c0,0.2,0,0.3,0,0.4
		c0.6,0.1,1.4,0.6,1.7,1.9c0.2,0.9,0.1,1.5-0.3,1.9c0.1,0.3,0.1,0.7,0,0.9c-0.1,0.5-0.2,0.8-0.2,0.9c0.6,0.6,2.3,2.6,2.5,4.9
		l0.1,0.1c0.6,0.6,0.9,0.9,0.6,1.7c-0.1,0.2-0.2,1.5-0.2,3l0.4,0v0.5c0,0.1,0,0.9,0,0.9v0.9l0.7,0.8l0.5,0.8
		c1.2,0.5,8.7,3.7,9.3,10.3c0.9,0.4,1.5,0.9,1.5,0.9l0.2,0.1l0.3,4.2l4.8,0.4l0,1.9l-1.3,1.3l148-2.9v-0.1v-0.4l2.5-0.4l4.3-0.5
		l12.8-0.5l1.2,0.2l0.6-1.2l-1.9-1.4l3.2-7l5.1-11.5l14.7-32.9l4.3-9.4l-5.8-4.1c-0.2,0.3-0.5,0.5-1,0.7c-1.2,0.3-2-0.7-2.2-1.3
		l-0.1-0.1l0.1-1l-0.7-0.5l-2.8-2.2l0.6-1.4l3,1.8l0.4-0.3l12.7,8.8l25,4.3l-4.7-3.2l-4-2.2l-0.2-0.8l-2.2-1.4l0-0.2
		c0-0.1-0.1-0.7,0.2-1c0.1-0.2,0.3-0.2,0.6-0.2c0.2,0,0.5,0,2.3,1.5l0.6,0.2l11.7,7.7l0.8,0.3l0.3-1.1l2.6,2.1v0.6l1.3,0.1l-0.3,0.6
		c-0.1,0.2-8.7,20.3-10.6,26.9c-0.5,1.9-1.3,4.2-2.2,6.9c-2.2,6.9-5,15.2-6.1,22.6c0.2,0,0.3-0.2,0.3-0.2h0.5v3.2l0.5,0.5l-0.2,0.4
		l80.9,0.4c-0.3-0.9-1.3-1.4-2-1.9c-0.5-0.3-0.8-0.5-1-0.8l0-0.1c-0.1-0.3-0.2-0.9-0.4-1.7c-1.1-4.9-4.4-19.7-11.4-37.8
		c-3.3-7.7-4.6-11.1-5.4-13.1c-1.2-3-1.2-3-4.6-10.2l-0.3-0.7c-0.6-0.1-0.8-0.5-0.9-0.7c-0.2-0.3-1.7-3-1.9-3.6l-0.2-0.5l1.8-0.8
		l-0.3-0.7l4.1-2.6l1.1,2.5l14.6-10.5v-0.3v-0.3l2-0.9l2-2.1l0.9,1.5l-1.8,1.1l-0.6,0.3l-1.3,1.3h-0.2H841v0.2l-0.5,0.7l-0.6,0.7
		l-1.2,1.1l-1.6,1.1l-4.2,3l-5.5,4.1l21.4,4.3l1.1-0.9l0.7,1l0.3,0.1l7.6-5.4l7.3-4.9h0.4c0.5-0.4,2.6-1.6,2.6-1.8v-0.6l0.9,0.2
		l0.8,0.1l-1.1,1.5l-1.5,1.1l-0.9,0.4l-0.1,0.4l-1,0.7l-4.6,3.3l-6.5,4.5c2.8,5.2,28.5,52.7,31.2,59.7l0.1,0.4l-0.3,0.2
		c-0.6,0.5-1.3,0.8-1.7,1.1c-0.1,0-0.1,0.1-0.1,0.1c0.1,0.2,0.2,0.4,0.3,0.7c0.1,0.2,0.2,0.4,0.2,0.6c8.5,0.1,228,3.2,243.3,3.5
		c0-0.3,0-0.6,0-0.7c0,0,0,0,0,0c0-1.7,0-5.1,0-6.2l-1.2,0.2l0.8-1c0.1-0.1,0.2-0.2,0.4-0.2v-3.2V175l2,1h0.2c0-0.5,0.1-1.3,0.1-1.4
		c0-0.1-0.2-0.1-0.2-0.2c0.1-0.2-0.1-0.7-0.1-1.6v-0.2l0.4-0.1c0-0.1,0.1-0.3,0.2-0.4c0-0.1,0-0.2,0-0.3c-0.1-0.3,0.1-0.6,0.2-0.9
		c0-0.2-0.1-0.5-0.1-0.8c0-0.3,0-0.7,0.1-0.9c-0.2-0.1-0.3-0.4-0.3-0.6c0-0.4,0.3-1.7,0.4-1.9c0.1-0.3,0.7-1.1,1.1-1.5
		c0-0.2,0.1-0.4,0.1-0.6c0,0,0,0,0,0c0-0.2-0.1-0.5,0-0.8c0-0.1,0.1-0.2,0.1-0.3c0-0.5,0.1-1.3,0.7-1.6c0.4-0.2,0.9-0.5,1.2-0.7
		l0.2-0.1c0.2-0.1,0.4-0.1,0.6,0c0.3,0.2,0.4,0.6,0.4,0.8c0,0.1,0.1,0.3,0.1,0.3c0.4,0.3,0.3,0.8,0.3,1c0,0.2-0.1,0.6-0.4,1
		c-0.1,0.1-0.1,0.2-0.1,0.3c0.6,0.4,2,1.3,2.2,2.8c0.1,0.2,0.3,0.4,0.4,0.5c0.8,1.1,1.6,2,1.6,4c0.1,1.6-0.7,2.9-1.1,3.4
		c0.4,0.1,0.7,0.5,0.8,0.9h12.1l-0.2-0.2v-0.2v-7.3c-0.4-0.3-0.5-0.5-0.5-0.7c0,0,0,0,0,0s0,0,0,0c0-0.2,0.1-0.3,0.5-0.8v-0.2v-0.4
		l0.3-0.1c0.5-0.2,1.1-0.4,1.3-0.6c0.1-1.4,0.6-10.6,0.9-17.1c-0.3-0.1-0.5-0.4-0.6-0.8c0-0.5,0.3-1,0.4-1.2l0-0.2
		c-0.1-0.2-0.1-0.4-0.1-0.8l0.2-0.2l0.4-0.1c0-0.1,0-0.6,0-1c0-0.1-0.3-0.1-0.3-0.1c0,0-0.2,0-0.4,0l-0.2,0l-0.1-0.1
		c-0.5-0.3-0.9-0.8-1.1-1.4l-0.3-0.2l0.2-0.3c0.1-0.2,0.4-0.4,0.7-0.5l-0.5-1.1v-0.1v-1.7l-0.3-0.7l0.3-0.4v-1.9v0v-0.1l0.4-1.5
		l0.7-0.4l0-0.5l0.1-0.1c0-0.1,0.4-1,0.7-1.4c0.1-0.2,0.2-0.5,0.3-0.7c0.1-0.2,0.1-0.4,0.2-0.5c0.2-0.3,0.6-0.6,1.1-0.5
		c0.1,0,0.5,0.1,0.6,0.7c0,0.1,0,0.2,0,0.4c0,0.1,0,0.3,0.1,0.4c0.2,0,0.3,0.1,0.5,0.3c0.2,0.3,0.2,0.7,0.2,1
		c-0.1,0.7,0.2,1.6,0.2,1.7l0,0.1l0,0.1c0,0.1-0.2,2.2-0.4,3c0,0,0.2,0.1,0.2,0.1c0.1,0,0.1,0,0.2,0c0.1,0,1,0,1.9,0
		c0.1-0.1,0.4-0.3,0.6-0.7c0.3-0.4,0.3-0.7,0.2-1.2l0-0.3c0-0.4,0-1.3,0-1.8c-0.3-0.1-0.6-0.3-0.7-0.6c-0.2-0.6,0.2-1,0.6-1.4
		c0-0.2,0-0.3,0-0.5h-0.6h-0.1v-1h-0.9l0.3-0.8c0.2-0.5,0.5-0.6,0.7-0.6c0.1,0,0.3,0,0.4,0.2l-0.1-0.7l-0.8-1.4l-0.5-0.6v-0.2v-1.3
		v-0.2l0.2-0.1c0.1,0,0,0-0.2-0.1l-0.3-0.1l0-0.3c0-0.8,0.2-1.4,0.6-1.6c0.3-0.2,0.6-0.2,0.8-0.1h2.5c0.5-0.9,2.5-3.8,5.2-5
		c-0.2,0-0.4,0-0.4,0h-0.4l-0.4-1.3l0.1-4.7h2.1l0.2-5.7c-0.2-0.3-0.5-1.1-0.4-1.6c0-0.2,0.1-0.4,0.2-0.5c0-0.1,0-0.3,0.1-0.7
		c0-1.1-0.1-2-0.3-2.2c-0.2,0-0.7-0.1-1.1-0.2l-0.4-0.1v-0.4v-0.4v-0.2V98v-0.4l1.4-0.3l0.7-0.6c0,0,1-0.5,1-2.6l0-0.1l0.1-0.1
		c0.2-0.3,0.3-0.5,0.4-0.6c0-0.3,0-0.7,0.5-1.3c0.3-2.9,2.2-41.1,3.2-61.6c-0.2-0.2-0.4-0.5-0.4-1l0-0.1l0.1-0.1
		c0.1-0.1,0.2-0.2,0.3-0.3c0.2-0.2,0.3-0.3,0.3-1.3c0-1.3,0-2.6,0-3c-0.1-0.2-0.4-0.5-0.8-0.9l-0.3-0.2l0.1-0.3
		c0.3-0.7,0.6-1.1,0.9-1.2l0.1-1.6l-0.2-0.6c0-0.1,0-0.3,0.1-0.6c-0.1-0.1-0.3-0.3-0.4-0.4l-0.2-0.1v-0.2c0,0,0-0.6,0-1.6v0
		c0-0.3,0.1-0.5,0.2-0.7l-0.7-0.1l-0.1-0.1c-0.1-0.1-1.8-1.3-1.7-3.3l0-0.6l0.6,0.1c0.4,0,0.6,0.1,0.8,0.1c-0.1-0.1-0.1-0.1-0.2-0.1
		l-0.2-0.1l0-0.2c0-0.1,0-0.8,0.5-1.2c0.2-0.1,0.4-0.2,0.8-0.2V10h1v1h0.9c0.1-0.2,0.2-0.3,0.4-0.3c0.2,0,0.4,0.1,0.5,0.2
		c0-0.1,0.1-0.1,0.1-0.2c0.3-0.5,0.5-0.7,0.9-0.6c0.2,0,0.5,0.2,0.5,0.7l0,0.2c0,0.1,0,0.3,0,0.4c0.2,0,0.3,0,0.5,0.2
		c0.2,0.2,0.3,0.6,0.2,1.1c0.5,0.8,0.2,1.4,0,1.9c-0.1,0.1-0.1,0.3-0.2,0.4c-0.3,1-2.1,1.1-2.8,1.1c0,0.6,0.1,1.5,0.1,2.4v0.2
		l-0.2,0.1c0,0-0.1,0.1-0.1,0.1c0.2,0.3,0.3,0.6,0.3,0.9l0,0.2c0.2,0.2,0.4,0.5,0.4,1c0,0.4,0.1,0.7,0.1,0.9c0.4,0.3,0.8,0.6,0.8,1
		c0.1,0.4,0.1,0.7-0.2,1.1c-0.1,0.2-0.3,0.4-0.4,0.6l0.2,4.2c0.1,0.3,0.3,0.8,0.4,1.1c0,0.3-0.1,0.6-0.3,0.8l4,61.2
		c0.2,0.2,0.5,0.8,0.5,1.4c0.5,0.7,0.8,1.6,0.8,2.7c0,0.5,0.5,0.9,0.7,1.1c0.2,0.1,0.3,0.3,0.3,0.5c0,0,0,0.1,0,0.2
		c0.1,0,0.2,0.1,0.3,0.2c0.2,0.2,0.3,0.5,0.4,0.8c0.4,0.5,0.6,0.8,0.3,1.3c-0.2,0.3-0.6,0.5-0.9,0.5l-0.1,0l0.1,3.1
		c0.1,0.1,0.1,0.3,0.2,0.3c0.1,0.2,0,0.4-0.3,0.8l-0.3,4.5l2,0.1v4.8c0.1,0.1,0.1,0.3,0,0.5c0,0.1-0.1,0.2-0.2,0.3
		c2.1,1.1,3.8,2.8,4.9,5c0.6,0,1.1,0,1.4,0l0.4,0c0.5,0.1,0.5,0.2,0.5,0.5l0,2.5l-0.1,0.1c0,0-0.2,0.5-0.4,1.3
		c-0.1,0.4,0.2,0.9,0.4,1.2c0.5,0.1,0.6,0.2,0.7,0.3c0.2,0.2,0.1,0.5-0.1,0.9l-0.1,0.8l0.6,0l0,1l-0.2,0.6l-0.2,0.1l-0.1,0.3
		l0.1,2.7c0.2,0.4,0.8,1.6,0.7,2.9c0,0.5-0.2,0.9-0.5,1.1l-0.2,0.7l0.1,1.1h2.8l-0.2-2c0,0-0.1-3.5,0.6-4.3c0,0,0,0,0,0
		c0,0,0,0,0-0.1c-0.1-0.1-0.2-0.3-0.4-0.5l-0.1-0.2l0-0.2c0.1-0.2,0.2-0.9,0.7-1c0.4,0,0.6,0.2,0.7,0.5l0,0.2v0.6
		c0.2,0.1,0.5,0.1,0.7,0c0.1-0.4,0.3-0.6,0.4-0.7c0,0,0-0.1-0.1-0.3l-0.1-0.1l0-0.2c0-0.2,0.1-0.7,0.5-0.8c0.1,0,0.4-0.1,0.7,0.2
		c0.3,0.3,0.6,0.8,0.6,1.2c0.3,0.7,0.1,1.5,0,1.6l0,0.1l-0.1,0.1c-0.1,0.1-0.5,0.5-1.2,0.7c-0.2,0.4,0,1.2,0.2,1.5l0,0.1l0,0.1
		c-0.1,1-0.1,2.2-0.1,2.7c0.2,0.1,0.5,0.2,0.5,0.2l0.2,0.1l0.3,0.9l-0.3,0.3l0,2.5l1.7,0.7l-0.2,0.5c-0.2,0.4-0.4,0.6-0.5,0.7
		c-0.1,0.2-0.3,0.5-0.9,0.8c-0.1,1.3,0,1.6,0,1.6l0.2,0.6l-0.2,0.4c0.1,0.1,0.2,0.2,0.3,0.3l0.1,0.1l0.1,1.5l-0.6,0.2l0.3,17.5
		l0.1,0.4l0.4,0.5l0.2,0.6l-0.3,0.8l0,1.1l0,6.6h14l0.1-0.8c-0.1-0.2-0.2-0.6-0.3-1c0-0.4,0-2.1,0.8-2.6c0-0.1,0-0.5-0.2-0.6
		c-0.1,0-0.3-0.1-0.3-0.3c-0.2-0.3,0-0.6,0.1-0.8c0.1-0.1,0.3-0.3,0.6-0.5c0-0.1-0.1-0.2-0.1-0.2c-0.2-0.2-0.7-0.7-0.6-1.5
		c0-0.2,0.3-2.2,2.6-3.5l-0.2-0.4l0-0.2l-0.1-0.1l0-0.2c0-0.5,0-0.6,0-0.7c0-0.1,0-0.1,0.3-0.5c-0.3-0.1-0.4-0.4-0.4-0.5
		c0-0.2,0.1-0.5,0.6-0.6l0.1,0c0.7,0,2.1,0.2,2.4,1.5c0,0.8-0.2,1.3-0.3,1.5c0,0,0.1,0.1,0.2,0.1c0.8,0.4,1.3,0.9,1.6,1.7
		c0.7,0.4,0.9,0.9,0.9,1.3c0.1,0.3,0.3,0.9,0.6,1.3l0.1,0.1l0,0.2c0.1,1.2,0.2,2,0.2,2l0,0.2l-0.5,0.7l-0.4,0.1
		c0.3,0.2,0.3,0.3,0.4,0.4c0,0.1,0,0.1,0,1.2l0,0.2l-0.4,0.8c0,0,0,0,0,0s-0.1,0.1-0.1,0.5c0,0.1,0,0.1,0,0.1l1.5,0l-0.2,0.6
		c0,0,0,0.1,0,0.1l0,0.1c0,0.2-0.1,0.4-0.2,0.5v0.6l0.3,0.1l1.5,0.2l0.5,0.7l-0.2,0.9l-0.5,1.4h-0.3h-1.1v5.9l0.3,0.1
		c58.4,0.5,169.2,1.1,173,0.2c3.6-2.5,21.4-14.5,32.6-17.7c1.4-1,2.5-1.6,3.4-2.2c2.7-1.6,3.9-2.3,9.9-10.7l0.1-0.1l0.1-0.1
		c1.7-0.7,4.1-1.3,4.7-1.4l0.1-0.1h-1.8h-0.6l0.5-2h-1h-0.2l-1.3-1.4l0.6-0.6h-0.7l1.4-3.2l2.9-5.1c0.1-0.1,4.2-6.6,4.7-12.2
		c0.6-5.7,1.8-11.9,6.2-15.1c1.9-1.4,3.3-1.9,4.2-1.5c0.3-1.2,1.1-3.1,3.6-5.2c-1.1-3.3-1-5-1-5.1l0-0.7h0.5c0,0,3.4-0.2,5.7-12.3
		c2.1-11.1,2.2-11.1,3.4-12c0.1-0.1,0.2-0.1,0.4-0.3c-0.8-1.4-1.1-3.3-0.9-4.1c0.2-0.6,1-2.9,1-3l0.1-0.2l0.2-0.1
		c0.3-0.2,2-1.1,2.4-1.2c0.5-0.2,1.5,0,1.7,0l0.2,0l1.6,1.9v2.6l1,1l-0.1,1.2c0.7-0.1,1.3-0.1,1.5-0.2c0.2-0.1,0.4-0.1,1.9,0.3
		l1.5-0.1l1.4-0.2c0.1,0,0.5-0.1,0.8,0.1c0.2,0.2,0.2,0.4,0.2,0.6c-0.1,0.2-0.3,0.5-0.7,0.8c0.1,0.1,0.1,0.2,0.1,0.4
		c0,0.5-0.3,1-1,1.1c-0.4,0.1-1.2,0-1.6-0.1c-0.3,0.1-1.4,0.3-2.5,0.1c-0.2,0-0.3-0.1-0.4-0.1c0.8,0.7,2.5,2.3,3.5,4.6l0,0.2
		c0.1,0.8,0.3,1,0.3,1.1c0.2,0.2,0.5,0.5,0.7,0.9c0.1-0.2,0.2-0.5,0.3-0.7c-0.3-0.2-0.5-0.3-0.5-0.3l-0.3-0.2l0.1-0.3
		c0-0.1,0.4-1.3,1.2-1.7c0.3-0.4,0.5-1.2,0.6-1.6l0.1-0.2c0.4-0.7,0.8-1.4,1-1.7c0-0.9,0.7-1.8,2.3-2.8c0.2-0.9,1.3-1.8,1.7-2
		c0.2-0.3,1.2-1.5,2.5-2.1l0.1,0l0.1,0c0.3,0,0.6,0,0.7,0c0.5-0.9,1.3-2.3,1.4-2.9c0.1-0.5,0.2-1,0.7-1c0.1,0,0.4,0.1,0.5,0.5
		c0.1,0.2,0.2,0.5,0.4,0.9c0.1-0.2,0.3-0.3,0.6-0.3c0.5,0,0.7,0.5,0.8,0.7c0.3,0.6,0.4,1.7,0.4,2.2c0.1,0.2,0.2,0.4,0.2,0.6
		c0.3,0.2,0.8,0.3,1.3,0.6c1.7,0.7,3.8,1.6,4.7,2.4c2,0.9,3.2,1.6,3.5,1.9c0.5,0,2.1,0.3,2.1,1.4c0,0.4,0,0.7-0.1,1
		c0.3,0.5,0.6,1.3,0,2.1l-0.1,0.1c-0.2,0.1-0.3,0.2-0.3,0.3l-0.1,0.2l-0.2,0.2c-0.2,0.1-0.4,0.1-0.8,0l-0.4-0.1c0,0-0.1,0-0.1,0
		c0.1,0.1,0.1,0.2,0.1,0.4c0.1,0.9-0.2,1.1-0.4,1.2l-0.1,0l0.1,0.6l-1.6-0.1c-0.6,0.1-1.6,0.2-2.3-0.5c-0.9,0.5-2.3,1.4-3,1.9
		c0.8,0.9,2.5,3,3.5,6.7c1.3,4.9,2.7,6.8,2.7,6.8c0.2,0.1,0.3,0.7,0.3,1.2c0.8,0,1.4,0,1.8,0.1c0.7,0.1,1.3,0.2,2.5-0.2
		c2.4-0.6,2.9-0.7,3-0.7l0.1,0l0.1,0c0.3,0.1,1.7,0.7,2.2,1.4l0.1,0.1c2.9,4,5.1,5.4,6.4,5.9l0.2,0.1l0.1,0.2c0.4,1.5,0.4,2,0.2,2.2
		c-0.1,1-0.1,2.6,0.3,3.1l0.2,0.3l-0.2,0.3c-0.3,0.4-0.7,0.7-1,0.8l-2.4,2.9l-0.3-0.7c-1-2-1.3-3-1.3-3.5c-0.4-0.4-0.4-1.2-0.3-1.7
		l0.1-0.2l0.8-0.3l0.2-0.3c-0.3-0.3-0.7-0.8-1.1-1.8c-3.4-3.7-4.3-3.9-4.5-4c-0.1,0-0.3,0-0.4-0.1c-0.9-0.2-2.1-0.4-5.2,1.2
		l-0.1,0.1c2.3,0.2,5.1,0.3,5.9-0.2l0.2-0.1l0.2,0.1c1.8,0.6,2.4,2.4,2.5,2.5l0,0.1c0.1,1.8,0.7,6.8,1.8,8l0.1,0.1l0,0.1
		c0.2,0.9,0.1,1.2-0.3,1.5c-0.1,0.1-0.2,0.2-0.3,0.5l0,0.1c-0.7,1.3-1,2.2-1.1,2.9c-0.2,0.8-0.8,1-1.3,1c-2.6,1.7-3.1,1.6-3.2,1.6
		c-0.2,0-0.4-0.1-0.5-0.5c-0.4-0.8-0.4-2.8,0-3.8c0-0.6,0.3-1.3,0.3-1.3l0.1-0.1c0.1-0.1,0.3-0.4,0.7-0.3c0.1,0,0.2,0,0.3,0.2
		c0.1,0,0.2-0.1,0.3-0.1l0.4-0.4c-0.1-0.3-0.2-0.6-0.2-1c0-0.3,0.1-0.5,0.2-0.8c0.1-0.5,0.3-1.1,0.1-1.7c0-0.2-0.1-0.4-0.1-0.6
		c-0.1-0.9-0.4-2.8-1-3.2c-0.6-0.4-4-0.1-5.1,0.7c-0.9,0.7-2.8,0.6-4.8,0.4c-0.1,0-0.2,0-0.2,0c-0.3,0.4-0.9,0.9-1.8,1.2
		c0.2,0.3,0.2,0.6,0.3,0.9c0.2,0.6,0.3,1,1.8,2c0.5,0.2,1,0.3,1.4,0.4c1.3,0.4,2.3,0.8,2.6,0.5c0.4-0.3,0.7-0.2,0.8-0.1
		c0.1,0.1,0.5,0.3,0.3,1.6l0,0.1l-0.1,0.1c-0.1,0.1-1.3,1.7-3.3,1.4c-0.8,0.1-1.4,0.1-1.7,0.1l0,0.3l-0.3,0.1
		c-0.3,0.1-1.4,0.4-2,0.2c-0.8-0.2-1.3-1.4-1.4-3.2c-1.2-1.6-1.9-2.5-2.1-3.2c-1.2,0.5-1.8,0.9-2.3,1.5c-0.7,1-4.4,3.5-7.8,4.7
		c-2.9,1-6.2,1.3-7.4,1.3l0,0.1c-0.1,1-0.1,1,0.5,2.2l0.1,0.3c0.7,1.5-0.1,2.5-0.9,3.5c-0.4,0.4-0.7,0.9-1,1.4
		c-0.7,1.5-1.4,1.8-1.9,1.8c-1.1,1-2.7,2.5-3.8,3c0.5,0.4,1.4,1.1,2.2,1.6c0.9,0.7,3.5,2.3,4.7,2.4c0.7,0,1.3,0,1.8,0
		c-0.1-0.2-0.2-0.4-0.2-0.5c0-0.2,0.1-0.5,0.2-0.6c0.5-0.6,1.6-0.6,1.7-0.6l0.1,0l0.1,0c0.6,0.2,2,0.8,2.3,1.5
		c0.1,0,0.4-0.1,0.7-0.2l0.1-0.1l0.1,0c0.1,0,0.6,0.1,0.9,0.5c0.1,0.2,0.2,0.4,0.2,0.8l4.5-1l16.9-1.1c13.3,0.4,14.7,0.7,14.9,1
		c0.8,0.5,10.7,3.9,11.9,4.1l0.1,0l0.1,0.1c0.3,0.3,0.5,0.5,0.7,0.7c0.3,0.4,0.8,0.9,3,2.5l0.1,0.1l0.1,0.1c0.1,0.2,0.2,0.4,0.4,0.6
		c1.1,1,2.2,2.1-1.8,17.8l-0.1,0.3l-0.3,0.1c-0.3,0.1-0.7,0.2-1.1,0.3c-2.6,0.7-6.6,1.7-8,4.9c-1.3,2.9,2.3,10.7,4,13.8l264.6,4.8
		L1802,183z M1807.9,149l0.2,0l-0.3,0H1807.9z M1901.4,78.1l0.6-0.7v-1.2l-0.2-0.4l0.1-0.6l0.1-0.6c0,0-0.1-0.6,0.3-0.8
		s0.1,1.2,0.1,1.2l0.2,0.2l-0.1,0.6l-0.1,0.4l0,0.9l0.6-0.3l0.3,0.6l-0.5,0.6l-0.8,0.6v0.4l-0.5,0.2l-0.2-0.3L1901.4,78.1z
		 M1873.1,15l0.5-1.1l0-0.8c0,0-0.3,0-0.3-0.1c0-0.1,0.2-0.6,0.2-0.6l0.4-0.5v-0.8c0,0,0-0.8,0.1-0.7s0.1,0.9,0.1,0.9s0.2,0,0.2,0.3
		s-0.1,0.8-0.1,0.8l-0.1,0.4c0,0,0.6-0.2,0.5,0.1c0,0.3-0.1,1.1-0.1,1.1l-0.2,0.5l-0.2,0.9l-0.1,0.9l-0.1,2l0-2.7l-0.8-0.2
		L1873.1,15z"/>
	<path id="XMLID_13_" d="M1159.5,130L1159.5,130l-0.5,0C1159,130,1159.3,130.1,1159.5,130z"/>
</g>
</svg>
