<?xml version="1.0" encoding="utf-8"?>
<!-- Generator: Adobe Illustrator 19.0.0, SVG Export Plug-In . SVG Version: 6.00 Build 0)  -->
<svg version="1.1" xmlns="http://www.w3.org/2000/svg" xmlns:xlink="http://www.w3.org/1999/xlink" x="0px" y="0px"
	 viewBox="0 0 237 53.5" style="enable-background:new 0 0 237 53.5;" xml:space="preserve">
<style type="text/css">
	.st0{fill:#FFFFFF;}
	.st1{display:none;}
	.st2{display:inline;stroke:#FFFFFF;stroke-miterlimit:10;}
	.st3{display:inline;fill:#FFFFFF;stroke:#000000;stroke-miterlimit:10;}
	.st4{display:inline;fill:none;}
	.st5{display:inline;}
	.st6{font-family:'OpenSans-Bold';}
	.st7{font-size:14px;}
	.st8{font-size:31px;}
	.st9{display:inline;fill:#FFFFFF;}
	.st10{font-size:36px;}
</style>
<g id="Слой_1">
	<g id="XMLID_1_">
		<rect id="XMLID_64_" x="2.3" y="2.1" width="232.8" height="49.7"/>
		<path id="XMLID_65_" class="st0" d="M235.5,52.4H1.8V1.6h233.8V52.4z M2.8,51.4h231.8V2.6H2.8V51.4z"/>
	</g>
	<g id="XMLID_2_">
		<rect id="XMLID_3_" x="100.8" y="5.1" class="st0" width="131.5" height="43.8"/>
		<path id="XMLID_5_" d="M232.8,49.4H100.3V4.6h132.5V49.4z M101.3,48.4h130.5V5.6H101.3V48.4z"/>
	</g>
	<g id="XMLID_4_">
		<path id="XMLID_7_" d="M110.9,17.7h0.8c1.3,0,2.3,0.3,3,0.8s1.1,1.3,1.1,2.2c0,2.1-1.4,3.1-4.1,3.1h-2.9v-10h6.3v1.8h-4.2V17.7z
			 M110.9,22.1h0.7c0.7,0,1.2-0.1,1.6-0.3s0.5-0.6,0.5-1c0-0.5-0.2-0.8-0.5-1s-0.9-0.3-1.7-0.3h-0.5V22.1z"/>
		<path id="XMLID_29_" d="M127.5,18.8c0,1.7-0.4,2.9-1.2,3.8s-2,1.3-3.5,1.3s-2.7-0.4-3.5-1.3s-1.2-2.2-1.2-3.8s0.4-2.9,1.2-3.8
			s2-1.3,3.5-1.3s2.7,0.4,3.5,1.3S127.5,17.2,127.5,18.8z M120.2,18.8c0,1.1,0.2,2,0.6,2.5s1.1,0.8,1.9,0.8c1.7,0,2.5-1.1,2.5-3.4
			c0-2.3-0.8-3.4-2.5-3.4c-0.8,0-1.5,0.3-1.9,0.9C120.4,16.9,120.2,17.7,120.2,18.8z"/>
		<path id="XMLID_32_" d="M138.1,23.9H136v-8.2h-2.4l-0.1,0.9c-0.3,2.3-0.5,4-0.7,4.9s-0.5,1.6-0.9,2s-1,0.6-1.7,0.6
			c-0.4,0-0.7-0.1-1-0.2v-1.7c0.3,0.1,0.5,0.1,0.7,0.1c0.2,0,0.4-0.1,0.6-0.3s0.3-0.6,0.4-1.2s0.3-1.6,0.5-2.9s0.4-2.7,0.5-3.9h6.3
			V23.9z"/>
		<path id="XMLID_34_" d="M148.4,20.7c0,2.1-1.4,3.1-4.1,3.1h-2.9v-10h2.1v3.8h0.8c1.3,0,2.3,0.3,3,0.8S148.4,19.8,148.4,20.7z
			 M143.5,22.1h0.7c0.7,0,1.2-0.1,1.6-0.3s0.5-0.6,0.5-1c0-0.5-0.2-0.8-0.5-1s-0.9-0.3-1.7-0.3h-0.5V22.1z"/>
		<path id="XMLID_37_" d="M158.4,22.1h3.1v-8.2h2.1v10H151v-10h2.1v8.2h3.1v-8.2h2.1V22.1z"/>
		<path id="XMLID_39_" d="M175.9,18.8c0,1.7-0.4,2.9-1.2,3.8s-2,1.3-3.5,1.3s-2.7-0.4-3.5-1.3s-1.2-2.2-1.2-3.8s0.4-2.9,1.2-3.8
			c0.8-0.9,2-1.3,3.5-1.3s2.7,0.4,3.5,1.3C175.5,15.9,175.9,17.2,175.9,18.8z M168.6,18.8c0,1.1,0.2,2,0.6,2.5s1.1,0.8,1.9,0.8
			c1.7,0,2.5-1.1,2.5-3.4c0-2.3-0.8-3.4-2.5-3.4c-0.8,0-1.5,0.3-1.9,0.9S168.6,17.7,168.6,18.8z"/>
		<path id="XMLID_42_" d="M178.6,13.9h1.9v4.8l0,1.3l-0.1,1.5h0l4.6-7.6h2.5v10h-1.9v-4.8c0-0.6,0-1.6,0.1-2.9h-0.1l-4.6,7.7h-2.5
			V13.9z M186.5,10.6c-0.1,0.9-0.4,1.5-1,1.9s-1.4,0.6-2.4,0.6c-1.1,0-1.9-0.2-2.4-0.6c-0.5-0.4-0.8-1-0.9-1.9h1.9
			c0,0.5,0.1,0.8,0.4,1c0.2,0.2,0.6,0.3,1.1,0.3c0.5,0,0.8-0.1,1-0.3c0.2-0.2,0.4-0.5,0.4-1H186.5z"/>
		<path id="XMLID_45_" d="M116.9,40.7h-2.4l-3.6-5.1v5.1h-2.1v-10h2.1v4.8l3.6-4.8h2.3l-3.6,4.8L116.9,40.7z"/>
		<path id="XMLID_47_" d="M125,40.7l-0.7-2.4h-3.6l-0.7,2.4h-2.3l3.5-10h2.6l3.5,10H125z M123.8,36.5c-0.7-2.2-1-3.4-1.1-3.7
			s-0.1-0.5-0.2-0.7c-0.2,0.6-0.6,2-1.3,4.3H123.8z"/>
		<path id="XMLID_50_" d="M136.1,33c0,0.6-0.2,1.2-0.7,1.6c-0.5,0.4-1.1,0.7-1.9,0.8v0c0.9,0.1,1.6,0.3,2.1,0.8s0.7,1,0.7,1.6
			c0,0.9-0.4,1.6-1.1,2.2c-0.7,0.5-1.8,0.8-3.1,0.8c-1.5,0-2.6-0.2-3.5-0.5v-1.8c0.4,0.2,0.9,0.4,1.5,0.5c0.6,0.1,1.1,0.2,1.6,0.2
			c1.7,0,2.5-0.5,2.5-1.5c0-0.4-0.3-0.8-0.8-1s-1.3-0.4-2.4-0.4h-0.9v-1.7h0.8c1.1,0,1.8-0.1,2.3-0.3s0.7-0.5,0.7-1
			c0-0.3-0.2-0.6-0.5-0.8c-0.3-0.2-0.8-0.3-1.4-0.3c-0.9,0-1.8,0.3-2.7,0.8l-0.9-1.4c0.6-0.4,1.2-0.7,1.8-0.8
			c0.6-0.2,1.3-0.3,2.1-0.3c1.1,0,2,0.2,2.6,0.7C135.8,31.7,136.1,32.3,136.1,33z"/>
		<path id="XMLID_52_" d="M145.1,40.7l-0.7-2.4h-3.6l-0.7,2.4h-2.3l3.5-10h2.6l3.5,10H145.1z M143.9,36.5c-0.7-2.2-1-3.4-1.1-3.7
			c-0.1-0.3-0.1-0.5-0.2-0.7c-0.2,0.6-0.6,2-1.3,4.3H143.9z"/>
		<path id="XMLID_55_" d="M157,40.7h-2.1v-3.9c-0.7,0.2-1.3,0.4-1.8,0.5c-0.5,0.1-0.9,0.1-1.3,0.1c-1,0-1.7-0.2-2.2-0.7
			c-0.5-0.5-0.8-1.1-0.8-1.9v-4.1h2.1v3.5c0,0.5,0.1,0.8,0.3,1.1c0.2,0.2,0.6,0.4,1.1,0.4c0.4,0,0.7,0,1.1-0.1
			c0.4-0.1,0.8-0.2,1.4-0.4v-4.5h2.1V40.7z"/>
		<path id="XMLID_57_" d="M160.2,30.7h1.9v4.8l0,1.3l-0.1,1.5h0l4.6-7.6h2.5v10h-1.9v-4.8c0-0.6,0-1.6,0.1-2.9h-0.1l-4.6,7.7h-2.5
			V30.7z"/>
		<path id="XMLID_59_" d="M172.5,30.7h1.9v4.8l0,1.3l-0.1,1.5h0l4.6-7.6h2.5v10h-1.9v-4.8c0-0.6,0-1.6,0.1-2.9h-0.1l-4.6,7.7h-2.5
			V30.7z M180.3,27.4c-0.1,0.9-0.4,1.5-1,1.9s-1.4,0.6-2.4,0.6c-1.1,0-1.9-0.2-2.4-0.6c-0.5-0.4-0.8-1-0.9-1.9h1.9
			c0,0.5,0.1,0.8,0.4,1c0.2,0.2,0.6,0.3,1.1,0.3c0.5,0,0.8-0.1,1-0.3c0.2-0.2,0.4-0.5,0.4-1H180.3z"/>
	</g>
	<g id="XMLID_6_">
		<path id="XMLID_17_" d="M205.9,38.8h-4.7V26l0-2.1l0.1-2.3c-0.8,0.8-1.3,1.3-1.6,1.5l-2.5,2l-2.3-2.8l7.1-5.7h3.8V38.8z"/>
		<path id="XMLID_25_" d="M223.6,38.8h-4.7V26l0-2.1l0.1-2.3c-0.8,0.8-1.3,1.3-1.6,1.5l-2.5,2l-2.3-2.8l7.1-5.7h3.8V38.8z"/>
	</g>
	<g id="XMLID_8_">
		<path id="XMLID_18_" class="st0" d="M26,40.6h-5.4V19.4h-7v-4.5H33v4.5h-7V40.6z"/>
		<path id="XMLID_20_" class="st0" d="M47.8,19c-2.1,0-3.6,0.8-4.8,2.3s-1.7,3.7-1.7,6.4c0,5.7,2.2,8.6,6.5,8.6c1.8,0,4-0.5,6.6-1.4
			v4.6c-2.1,0.9-4.5,1.3-7.1,1.3c-3.7,0-6.6-1.1-8.6-3.4s-3-5.5-3-9.8c0-2.7,0.5-5,1.5-7s2.4-3.6,4.2-4.6s4-1.6,6.4-1.6
			c2.5,0,5,0.6,7.5,1.8l-1.8,4.4c-1-0.5-1.9-0.9-2.9-1.2S48.8,19,47.8,19z"/>
		<path id="XMLID_22_" class="st0" d="M65.8,27.2l-8.6-12.3h5.6L71,27.3V14.9h5.1v12.4l8.3-12.4h5.6l-8.6,12.3l9.1,13.4h-5.8
			l-8.6-13v13H71v-13l-8.6,13h-5.8L65.8,27.2z"/>
	</g>
</g>
<g id="Слой_1__x28_копия_x29_" class="st1">
	<rect id="XMLID_16_" x="2.3" y="2.1" class="st2" width="232.8" height="49.7"/>
	<rect id="XMLID_15_" x="100.8" y="5.1" class="st3" width="131.5" height="43.8"/>
	<rect id="XMLID_14_" x="107.5" y="13.2" class="st4" width="85.8" height="27.6"/>
	<text id="XMLID_13_" transform="matrix(1 0 0 1 107.5 23.8564)" class="st5"><tspan x="0" y="0" class="st6 st7">БОЛЬШОЙ</tspan><tspan x="0" y="16.8" class="st6 st7">КАЗАЧИЙ</tspan></text>
	<rect id="XMLID_12_" x="193" y="15.2" class="st4" width="35.5" height="23.8"/>
	<text id="XMLID_11_" transform="matrix(1 0 0 1 193.0547 38.7764)" class="st5 st6 st8">11</text>
	<rect id="XMLID_10_" x="10.8" y="13.2" class="st4" width="81.7" height="27.6"/>
	<text id="XMLID_9_" transform="matrix(1 0 0 1 12.8237 40.5761)" class="st9 st6 st10">ТСЖ</text>
</g>
</svg>
